<svg xmlns="http://www.w3.org/2000/svg" xmlns:xlink="http://www.w3.org/1999/xlink" viewBox="0 0 508.186 346.05"><defs><style>.a{fill:none;}.b{opacity:0.7;}.c{fill:#1ea098;}.d{fill:#1a1a1a;}.d,.f,.g,.h{opacity:0.88;}.e{fill:#5e5d5d;}.f{fill:#fea289;}.g{fill:#feb791;}.h{fill:#707070;}.i{fill:#fff;}.j{clip-path:url(#a);}.k{fill:#84d1cd;}.l{fill:#87cee9;}.m{fill:#238892;}.n{fill:#f4f4e6;}.o{fill:#fcf05a;}.p{fill:#7d8d9c;}.q{fill:#cfdfe8;}.r{fill:#dd3e46;}.s{fill:#5a6470;}.t{fill:#fdbd40;}.u{fill:#ad6327;}.v{fill:#d3843d;}.w{fill:#aabece;}.x{fill:#f49e21;}.y{fill:#195c85;}.z{fill:#32b1cc;}.aa{fill:#a8e5ff;}.ab{fill:#dbf4ff;}.ac{fill:#b3b3b3;}.ad{fill:#999;}.ae{fill:#ffb4a9;}.af{fill:#ffd9d4;}.ag{fill:#60312c;}.ah{fill:#40211d;}.ai{fill:#ff6337;}.aj{fill:#ebebeb;}.ak{fill:#696969;}.al{fill:#ff8646;}.am{fill:#85453d;}.an{fill:#cf301b;}.ao{fill:#ff4128;}.ap{fill:#ff8d7e;}.aq{fill:#9db55f;}.ar{fill:#b9d171;}.as{fill:#c27749;}.at{fill:#e18f4e;}.au{fill:#fff0d3;}.av{fill:#ffa754;}.aw{fill:#ffcb63;}.ax{fill:#2dade3;}.ay{fill:#49c9ff;}.az{fill:#a45e43;}</style><clipPath id="a"><rect class="a" width="82.196" height="186.376"/></clipPath></defs><g transform="translate(-173.813 -502.184)"><g class="b" transform="translate(-5477.484 2834.184)"><rect class="c" width="92.71" height="226.518" rx="3" transform="translate(5694.979 -2287.477)"/><path class="c" d="M1.846,0H57.839a1.846,1.846,0,0,1,1.846,1.846V143.982a1.846,1.846,0,0,1-1.846,1.846H1.846A1.846,1.846,0,0,1,0,143.982V1.846A1.846,1.846,0,0,1,1.846,0Z" transform="translate(5797.247 -2206.787)"/><path class="d" d="M508.686,192.8,482.5,229.494l26.186,36.694h26.186c53.577,0,53.577-73.389,0-73.389Z" transform="translate(5584.43 -2257.45)"/><path class="e" d="M33.5,192.8h408.2v73.389H33.5C-11.2,266.275-11.2,192.8,33.5,192.8Z" transform="translate(5651.323 -2257.45)"/><g transform="translate(5760.254 -2309.08)"><ellipse class="f" cx="2.224" cy="1.934" rx="2.224" ry="1.934" transform="translate(1.323 0)"/><ellipse class="g" cx="3.674" cy="2.997" rx="3.674" ry="2.997" transform="translate(3.644 2.321)"/><path class="h" d="M-2014.279-1644.993l-1.562.761,1.562.441" transform="translate(2015.842 1646.348)"/></g><g transform="translate(5806.248 -2220.953)"><ellipse class="f" cx="1.431" cy="1.245" rx="1.431" ry="1.245" transform="translate(3.361)"/><ellipse class="g" cx="2.365" cy="1.929" rx="2.365" ry="1.929" transform="translate(0 1.494)"/><path class="h" d="M-2015.842-1644.993l1.006.49-1.006.284" transform="translate(2021.911 1645.865)"/></g><rect class="i" width="37.275" height="3.823" rx="1.912" transform="translate(5671.084 -2029.418)"/><rect class="i" width="37.275" height="3.823" rx="1.912" transform="translate(5740.856 -2029.418)"/><rect class="i" width="37.275" height="3.823" rx="1.912" transform="translate(5810.627 -2029.418)"/><rect class="i" width="37.275" height="3.823" rx="1.912" transform="translate(5880.398 -2029.418)"/><rect class="i" width="37.275" height="3.823" rx="1.912" transform="translate(5950.17 -2029.418)"/><rect class="i" width="37.275" height="3.823" rx="1.912" transform="translate(6019.941 -2029.418)"/><rect class="i" width="37.275" height="3.823" rx="1.912" transform="translate(6089.713 -2029.418)"/><g class="j" transform="translate(5700.713 -2281.742)"><g transform="translate(-5703 2275)"><rect class="k" width="24" height="18" transform="translate(5703 -2275)"/><rect class="k" width="24" height="18" transform="translate(5734 -2275)"/><rect class="k" width="24" height="18" transform="translate(5765 -2275)"/></g><g transform="translate(-5703 2300)"><rect class="k" width="24" height="18" transform="translate(5703 -2275)"/><rect class="k" width="24" height="18" transform="translate(5734 -2275)"/><rect class="k" width="24" height="18" transform="translate(5765 -2275)"/></g><g transform="translate(-5703 2325)"><rect class="k" width="24" height="18" transform="translate(5703 -2275)"/><rect class="k" width="24" height="18" transform="translate(5734 -2275)"/><rect class="k" width="24" height="18" transform="translate(5765 -2275)"/></g><g transform="translate(-5703 2350)"><rect class="k" width="24" height="18" transform="translate(5703 -2275)"/><rect class="k" width="24" height="18" transform="translate(5734 -2275)"/><rect class="k" width="24" height="18" transform="translate(5765 -2275)"/></g><g transform="translate(-5703 2375)"><rect class="k" width="24" height="18" transform="translate(5703 -2275)"/><rect class="k" width="24" height="18" transform="translate(5734 -2275)"/><rect class="k" width="24" height="18" transform="translate(5765 -2275)"/></g><g transform="translate(-5703 2400)"><rect class="k" width="24" height="18" transform="translate(5703 -2275)"/><rect class="k" width="24" height="18" transform="translate(5734 -2275)"/><rect class="k" width="24" height="18" transform="translate(5765 -2275)"/></g><g transform="translate(-5703 2425)"><rect class="k" width="24" height="18" transform="translate(5703 -2275)"/><rect class="k" width="24" height="18" transform="translate(5734 -2275)"/><rect class="k" width="24" height="18" transform="translate(5765 -2275)"/></g><g transform="translate(-5703 2450)"><rect class="k" width="24" height="18" transform="translate(5703 -2275)"/><rect class="k" width="24" height="18" transform="translate(5734 -2275)"/><rect class="k" width="24" height="18" transform="translate(5765 -2275)"/></g></g><path class="k" d="M0,0H14.767V11.076H0Z" transform="translate(5800.938 -2203.095)"/><path class="k" d="M0,0H14.767V11.076H0Z" transform="translate(5820.013 -2203.095)"/><path class="k" d="M0,0H14.767V11.076H0Z" transform="translate(5839.087 -2203.095)"/><path class="k" d="M0,0H14.767V11.076H0Z" transform="translate(5800.938 -2187.712)"/><path class="k" d="M0,0H14.767V11.076H0Z" transform="translate(5820.013 -2187.712)"/><path class="k" d="M0,0H14.767V11.076H0Z" transform="translate(5839.087 -2187.712)"/><path class="k" d="M0,0H14.767V11.076H0Z" transform="translate(5800.938 -2172.33)"/><path class="k" d="M0,0H14.767V11.076H0Z" transform="translate(5820.013 -2172.33)"/><path class="k" d="M0,0H14.767V11.076H0Z" transform="translate(5839.087 -2172.33)"/><path class="k" d="M0,0H14.767V11.076H0Z" transform="translate(5800.938 -2156.947)"/><path class="k" d="M0,0H14.767V11.076H0Z" transform="translate(5820.013 -2156.947)"/><path class="k" d="M0,0H14.767V11.076H0Z" transform="translate(5839.087 -2156.947)"/><path class="k" d="M0,0H14.767V11.076H0Z" transform="translate(5800.938 -2141.564)"/><path class="k" d="M0,0H14.767V11.076H0Z" transform="translate(5820.013 -2141.564)"/><path class="k" d="M0,0H14.767V11.076H0Z" transform="translate(5839.087 -2141.564)"/><path class="k" d="M0,0H14.767V11.076H0Z" transform="translate(5800.938 -2126.181)"/><path class="k" d="M0,0H14.767V11.076H0Z" transform="translate(5820.013 -2126.181)"/><path class="k" d="M0,0H14.767V11.076H0Z" transform="translate(5839.087 -2126.181)"/><path class="k" d="M0,0H14.767V11.076H0Z" transform="translate(5800.938 -2110.799)"/><path class="k" d="M0,0H14.767V11.076H0Z" transform="translate(5820.013 -2110.799)"/><path class="k" d="M0,0H14.767V11.076H0Z" transform="translate(5839.087 -2110.799)"/><path class="k" d="M0,0H14.767V11.076H0Z" transform="translate(5800.938 -2095.416)"/><path class="k" d="M0,0H14.767V11.076H0Z" transform="translate(5820.013 -2095.416)"/><path class="k" d="M0,0H14.767V11.076H0Z" transform="translate(5839.087 -2095.416)"/><rect class="k" width="20.071" height="27.629" transform="translate(5733.298 -2092.411)"/><rect class="c" width="9.558" height="15.292" transform="translate(5763.794 -2301.813)"/><rect class="c" width="6.152" height="9.843" transform="translate(5804.893 -2216.275)"/><path class="k" d="M0,0H11.7V17.266H0Z" transform="translate(5821.584 -2082.598)"/><g transform="translate(5800.925 -2332)"><g transform="translate(0 2.867)"><path class="l" d="M155.116,332.779,136,331.823v-2.867L155.116,328Z" transform="translate(-119.752 -300.282)"/><path class="l" d="M155.116,96,136,96.956v2.867l19.116.956Z" transform="translate(-119.752 -96)"/><path class="l" d="M52.472,211.469H12.9A15.769,15.769,0,0,1,0,204.874V200H48.745l5.926,6.5a3.084,3.084,0,0,1,.765,2.007,2.978,2.978,0,0,1-2.963,2.963Z" transform="translate(0 -187.575)"/></g><g transform="translate(0 5.735)"><path class="m" d="M168,264h17.2l-11.469,15.292H168Z" transform="translate(-147.929 -246.796)"/><path class="m" d="M0,129.558V120H3.823l5.735,9.558Z" transform="translate(0 -120)"/></g><g transform="translate(4.779 18.16)"><path class="n" d="M40,224h1.912v1.912H40Z" transform="translate(-40 -224)"/><path class="n" d="M72,224h1.912v1.912H72Z" transform="translate(-68.177 -224)"/><path class="n" d="M104,224h1.912v1.912H104Z" transform="translate(-96.354 -224)"/><path class="n" d="M136,224h1.912v1.912H136Z" transform="translate(-124.531 -224)"/><path class="n" d="M168,224h1.912v1.912H168Z" transform="translate(-152.708 -224)"/><path class="n" d="M200,224h1.912v1.912H200Z" transform="translate(-180.885 -224)"/><path class="n" d="M232,224h1.912v1.912H232Z" transform="translate(-209.061 -224)"/><path class="n" d="M264,224h1.912v1.912H264Z" transform="translate(-237.238 -224)"/><path class="n" d="M296,224h1.912v1.912H296Z" transform="translate(-265.415 -224)"/><path class="n" d="M328,224h1.912v1.912H328Z" transform="translate(-293.592 -224)"/><path class="n" d="M360,224h1.912v1.912H360Z" transform="translate(-321.769 -224)"/><path class="n" d="M392,224h1.912v1.912H392Z" transform="translate(-349.946 -224)"/></g><g transform="translate(20.071 0)"><path class="m" d="M435.059,229.745,432,226.4v8.315h.86a2.978,2.978,0,0,0,2.963-2.963,3.085,3.085,0,0,0-.765-2.007Z" transform="translate(-400.459 -207.954)"/><path class="m" d="M168,87.292h17.2L173.735,72H168Z" transform="translate(-168 -72)"/></g></g><g transform="translate(5765.511 -2072.371)"><path class="o" d="M39.89,148H10.583l-4.07,9.769L0,159.4v8.141H47.217V156.955Z" transform="translate(0 -141.487)"/><circle class="p" cx="4.07" cy="4.07" r="4.07" transform="translate(8.141 21.98)"/><circle class="q" cx="1.628" cy="1.628" r="1.628" transform="translate(10.583 24.423)"/><circle class="p" cx="4.07" cy="4.07" r="4.07" transform="translate(34.192 21.98)"/><circle class="q" cx="1.628" cy="1.628" r="1.628" transform="translate(36.634 24.423)"/><g transform="translate(43.147 17.91)"><path class="r" d="M424,260h4.07v1.628H424Z" transform="translate(-424 -260)"/><path class="r" d="M424,292h4.07v1.628H424Z" transform="translate(-424 -288.744)"/></g><path class="n" d="M114.583,180h-8.141L104,186.513h10.583Z" transform="translate(-93.417 -170.231)"/><g transform="translate(16.282 17.91)"><path class="s" d="M160,260h4.07v1.628H160Z" transform="translate(-160 -260)"/><path class="s" d="M328,260h4.07v1.628H328Z" transform="translate(-310.904 -260)"/></g><path class="n" d="M248,180h13.025v6.513H248Z" transform="translate(-222.763 -170.231)"/><path class="s" d="M128,100h4.885v4.885H128Z" transform="translate(-114.975 -98.372)"/><path class="t" d="M0,284H3.256v3.256H0Z" transform="translate(0 -263.648)"/><g transform="translate(20.352 20.352)"><path class="s" d="M200,300h1.628v1.628H200Z" transform="translate(-200 -298.372)"/><path class="s" d="M216,284h1.628v1.628H216Z" transform="translate(-214.372 -284)"/><path class="s" d="M232,300h1.628v1.628H232Z" transform="translate(-228.744 -298.372)"/><path class="s" d="M248,284h1.628v1.628H248Z" transform="translate(-243.115 -284)"/><path class="s" d="M264,300h1.628v1.628H264Z" transform="translate(-257.487 -298.372)"/><path class="s" d="M280,284h1.628v1.628H280Z" transform="translate(-271.859 -284)"/><path class="s" d="M296,300h1.628v1.628H296Z" transform="translate(-286.231 -298.372)"/></g><path class="u" d="M241.628,84H251.4a1.628,1.628,0,0,1,1.628,1.628v4.885H240V85.628A1.628,1.628,0,0,1,241.628,84Z" transform="translate(-215.577 -84)"/><g transform="translate(26.865 0)"><path class="v" d="M264,84h1.628v6.513H264Z" transform="translate(-264 -84)"/><path class="v" d="M328,84h1.628v6.513H328Z" transform="translate(-321.487 -84)"/></g></g><g transform="translate(5680.592 -2044.182)"><path class="w" d="M52.669,276H8v10.051H72.77V276Z" transform="translate(-6.883 -251.432)"/><circle class="p" cx="4.467" cy="4.467" r="4.467" transform="translate(50.253 30.152)"/><path class="q" d="M378.233,336.467a2.233,2.233,0,1,1,2.233-2.233A2.24,2.24,0,0,1,378.233,336.467Z" transform="translate(-323.514 -299.615)"/><circle class="p" cx="4.467" cy="4.467" r="4.467" transform="translate(5.584 30.152)"/><path class="q" d="M58.233,336.467a2.233,2.233,0,1,1,2.233-2.233A2.24,2.24,0,0,1,58.233,336.467Z" transform="translate(-48.183 -299.615)"/><circle class="p" cx="4.467" cy="4.467" r="4.467" transform="translate(16.751 30.152)"/><path class="q" d="M138.233,336.467a2.233,2.233,0,1,1,2.233-2.233A2.24,2.24,0,0,1,138.233,336.467Z" transform="translate(-117.016 -299.615)"/><path class="m" d="M328,148h17.868v17.868H328Z" transform="translate(-282.214 -141.3)"/><path class="o" d="M8,100H48.2v24.568H8Z" transform="translate(-6.883 -100)"/><path class="q" d="M360,180h13.4v6.7H360Z" transform="translate(-309.747 -168.833)"/><g transform="translate(6.7 3.35)"><path class="x" d="M49.117,141.868A1.055,1.055,0,0,1,48,140.751V125.117a1.117,1.117,0,0,1,2.233,0v15.634A1.055,1.055,0,0,1,49.117,141.868Z" transform="translate(-48 -124)"/><path class="x" d="M81.117,141.868A1.055,1.055,0,0,1,80,140.751V125.117a1.117,1.117,0,0,1,2.233,0v15.634A1.055,1.055,0,0,1,81.117,141.868Z" transform="translate(-75.533 -124)"/><path class="x" d="M113.117,141.868A1.055,1.055,0,0,1,112,140.751V125.117a1.117,1.117,0,0,1,2.233,0v15.634A1.055,1.055,0,0,1,113.117,141.868Z" transform="translate(-103.066 -124)"/><path class="x" d="M145.117,141.868A1.055,1.055,0,0,1,144,140.751V125.117a1.117,1.117,0,0,1,2.233,0v15.634A1.055,1.055,0,0,1,145.117,141.868Z" transform="translate(-130.599 -124)"/><path class="x" d="M177.117,141.868A1.055,1.055,0,0,1,176,140.751V125.117a1.117,1.117,0,1,1,2.233,0v15.634A1.055,1.055,0,0,1,177.117,141.868Z" transform="translate(-158.132 -124)"/><path class="x" d="M209.117,141.868A1.055,1.055,0,0,1,208,140.751V125.117a1.117,1.117,0,1,1,2.233,0v15.634A1.055,1.055,0,0,1,209.117,141.868Z" transform="translate(-185.665 -124)"/><path class="x" d="M241.117,141.868A1.055,1.055,0,0,1,240,140.751V125.117a1.117,1.117,0,0,1,2.233,0v15.634A1.055,1.055,0,0,1,241.117,141.868Z" transform="translate(-213.198 -124)"/></g><path class="r" d="M4.467,302.233H1.117a1.117,1.117,0,0,1,0-2.233h3.35a1.117,1.117,0,0,1,0,2.233Z" transform="translate(0 -272.082)"/><path class="o" d="M444.467,302.233h-3.35a1.117,1.117,0,0,1,0-2.233h3.35a1.117,1.117,0,0,1,0,2.233Z" transform="translate(-378.58 -272.082)"/><path class="y" d="M345.868,113.584,328,108v5.584Z" transform="translate(-282.214 -106.883)"/></g><g transform="translate(5782.461 -2027.956)"><path class="z" d="M9.138,116H32.4l9.138,9.968,6.645,1.661v8.307H0v-10.8Z" transform="translate(0 -116)"/><circle class="p" cx="4.153" cy="4.153" r="4.153" transform="translate(31.566 15.783)"/><circle class="q" cx="1.661" cy="1.661" r="1.661" transform="translate(34.058 18.275)"/><circle class="p" cx="4.153" cy="4.153" r="4.153" transform="translate(4.984 15.783)"/><circle class="q" cx="1.661" cy="1.661" r="1.661" transform="translate(7.476 18.275)"/><path class="n" d="M256,148h8.861l6.091,6.645H256Z" transform="translate(-229.418 -144.677)"/><path class="s" d="M248,236h4.153v1.661H248Z" transform="translate(-222.249 -223.54)"/><path class="n" d="M115.63,154.645H104V148h11.63Z" transform="translate(-93.201 -144.677)"/><path class="o" d="M435.323,255.323H432V252h3.323Z" transform="translate(-387.143 -237.878)"/><path class="r" d="M0,228H3.323v3.323H0Z" transform="translate(0 -216.37)"/></g></g><g transform="translate(379 562.475)"><path class="aa" d="M408.5,190.6l-69-171h86.245v171Z" transform="translate(-144.298 -8.331)"/><rect class="ab" width="251.261" height="170.766" transform="translate(12.937 11.499)"/><path class="ac" d="M290.072,318.125H4.312a4.312,4.312,0,1,1,0-8.625H290.072a4.312,4.312,0,1,1,0,8.625Z" transform="translate(0 -131.547)"/><path class="ad" d="M461.749,20.124,444.5,10.062,461.749,0H479V20.124Z" transform="translate(-188.926)"/><rect class="ac" width="268.51" height="20.124" transform="translate(4.312)"/><g transform="translate(17.824 8.337)"><path class="ae" d="M287.24,251.8V366.391l14.489,4.83a4.364,4.364,0,1,1-2.76,8.28l-17.479-5.807a4.333,4.333,0,0,1-2.99-4.14V251.8Z" transform="translate(-136.195 -115.36)"/><path class="af" d="M226.44,251.8V366.391l14.489,4.83a4.364,4.364,0,1,1-2.76,8.28l-17.479-5.807a4.333,4.333,0,0,1-2.99-4.14V251.8Z" transform="translate(-110.353 -115.36)"/><path class="ag" d="M210.1,60.1v45.94c0,4.255,10.522,7.647,23.516,7.647s23.516-3.45,23.516-7.647V60.1Z" transform="translate(-107.123 -33.881)"/><path class="ah" d="M210.1,60.1v45.94c0,4.255,11.729,7.647,26.219,7.647s26.219-3.45,26.219-7.647V60.1Z" transform="translate(-107.123 -33.881)"/><path class="ae" d="M281.876,104.037A48.12,48.12,0,0,0,329.944,55.97a4.37,4.37,0,1,1,8.739,0,56.917,56.917,0,0,1-56.864,56.864H255.6v-8.74l26.276-.058Z" transform="translate(-126.462 -30.269)"/><path class="ae" d="M176.364,105.495h26.219v8.74H176.364A56.917,56.917,0,0,1,119.5,57.37a4.37,4.37,0,0,1,8.74,0,48.181,48.181,0,0,0,48.125,48.125Z" transform="translate(-68.615 -30.864)"/><path class="ae" d="M275.751,30.5H255.8V73.738a26.207,26.207,0,0,0,26.219-26.219A26.783,26.783,0,0,0,275.751,30.5Z" transform="translate(-126.547 -21.3)"/><path class="af" d="M244.426,37.63,216.367,30.5a26.225,26.225,0,0,0,19.951,43.238c4.83,0,8.74-11.729,8.74-26.219A75.945,75.945,0,0,0,244.426,37.63Z" transform="translate(-107.123 -21.3)"/><path class="ah" d="M255.7,14.5l8.107,16.329a28.266,28.266,0,0,0,11.844-7.072A25.952,25.952,0,0,0,255.7,14.5Z" transform="translate(-126.504 -14.5)"/><path class="ag" d="M240.951,14.5A25.952,25.952,0,0,0,221,23.757a28.223,28.223,0,0,0,28.058,7.072C247.736,21.227,244.631,14.5,240.951,14.5Z" transform="translate(-111.756 -14.5)"/><path class="ai" d="M279.751,141.772A11.68,11.68,0,0,0,268.079,130.1H250.6v69.974l29.151-17.479v-8.74l-5.807-4.37,5.807-4.37v-8.74l-5.807-4.37,5.807-4.37v-5.865Z" transform="translate(-124.337 -63.634)"/><path class="aj" d="M233.444,130.1H221.772A11.68,11.68,0,0,0,210.1,141.772v5.807l5.807,4.37-5.807,4.37v8.8l5.807,4.37-5.807,4.37v26.219h34.958v-58.3A11.631,11.631,0,0,0,233.444,130.1Z" transform="translate(-107.123 -63.634)"/><path class="ak" d="M284.086,160.6H266.607l-5.807,4.37,5.807,4.37h17.479Z" transform="translate(-128.672 -76.597)"/><path class="ai" d="M279.793,221.4H262.314L250.7,269.065l11.614,61.349h17.479Z" transform="translate(-124.379 -102.439)"/><path class="al" d="M238.6,221.4H203.64c-5.462,9.6-8.74,22.194-8.74,36.051v72.964h43.7Z" transform="translate(-100.663 -102.439)"/><path class="aj" d="M210.1,159.6V194.62h52.437V156.5L210.1,158.167" transform="translate(-107.123 -74.854)"/><rect class="ae" width="52.437" height="10.637" transform="translate(102.977 109.129)"/><path class="ai" d="M266.607,151.577s2.357,25.874-5.807,37.545h23.344v-38.81l-5.462-5.577-4.772-1.035Z" transform="translate(-128.672 -69.414)"/><path class="ag" d="M166,274.6v17.249l77.046,104.874h26.449V274.6Z" transform="translate(-88.379 -125.051)"/><rect class="am" width="86.245" height="104.874" transform="translate(77.621 166.798)"/><path class="an" d="M448.249,467H431l11.5,17.249h17.249V478.5A11.533,11.533,0,0,0,448.249,467Z" transform="translate(-201.012 -206.827)"/><path class="ao" d="M414,467H402.5A11.533,11.533,0,0,0,391,478.5v5.75h34.5V478.5A11.533,11.533,0,0,0,414,467Z" transform="translate(-184.011 -206.827)"/><path class="ap" d="M436,347v51.747A25.874,25.874,0,1,0,436,347Z" transform="translate(-203.138 -155.823)"/><path class="ae" d="M425.5,372.874c0-14.317-3.852-25.874-8.625-25.874a25.874,25.874,0,0,0,0,51.747C421.646,398.747,425.5,387.19,425.5,372.874Z" transform="translate(-184.011 -155.823)"/><path class="aq" d="M358.249,467H341l11.5,17.249h17.249V478.5A11.533,11.533,0,0,0,358.249,467Z" transform="translate(-162.76 -206.827)"/><path class="ar" d="M324,467H312.5A11.533,11.533,0,0,0,301,478.5v5.75h34.5V478.5A11.533,11.533,0,0,0,324,467Z" transform="translate(-145.758 -206.827)"/><path class="as" d="M346,347v51.747A25.874,25.874,0,0,0,346,347Z" transform="translate(-164.885 -155.823)"/><path class="at" d="M335.5,372.874c0-14.317-3.852-25.874-8.625-25.874a25.874,25.874,0,0,0,0,51.747C331.646,398.747,335.5,387.19,335.5,372.874Z" transform="translate(-145.758 -155.823)"/><path class="aa" d="M268.249,467H251l11.5,17.249h17.249V478.5A11.533,11.533,0,0,0,268.249,467Z" transform="translate(-124.507 -206.827)"/><path class="ab" d="M234,467H222.5A11.533,11.533,0,0,0,211,478.5v5.75h34.5V478.5A11.533,11.533,0,0,0,234,467Z" transform="translate(-107.506 -206.827)"/><path class="af" d="M256,347v51.747A25.874,25.874,0,1,0,256,347Z" transform="translate(-126.632 -155.823)"/><path class="au" d="M245.5,372.874c0-14.317-3.852-25.874-8.625-25.874a25.874,25.874,0,1,0,0,51.747C241.646,398.747,245.5,387.19,245.5,372.874Z" transform="translate(-107.506 -155.823)"/><path class="av" d="M178.249,467H161l11.5,17.249h17.249V478.5A11.533,11.533,0,0,0,178.249,467Z" transform="translate(-86.254 -206.827)"/><path class="aw" d="M144,467H132.5A11.533,11.533,0,0,0,121,478.5v5.75h34.5V478.5A11.533,11.533,0,0,0,144,467Z" transform="translate(-69.253 -206.827)"/><path class="ae" d="M166,347v51.747A25.874,25.874,0,1,0,166,347Z" transform="translate(-88.379 -155.823)"/><path class="af" d="M155.5,372.874c0-14.317-3.852-25.874-8.625-25.874a25.874,25.874,0,0,0,0,51.747C151.646,398.747,155.5,387.19,155.5,372.874Z" transform="translate(-69.253 -155.823)"/><path class="ax" d="M88.249,467H71l11.5,17.249H99.748V478.5A11.533,11.533,0,0,0,88.249,467Z" transform="translate(-48.001 -206.827)"/><path class="ay" d="M54,467H42.5A11.533,11.533,0,0,0,31,478.5v5.75H65.5V478.5A11.533,11.533,0,0,0,54,467Z" transform="translate(-31 -206.827)"/><path class="am" d="M76,347v51.747A25.874,25.874,0,1,0,76,347Z" transform="translate(-50.126 -155.823)"/><path class="az" d="M65.5,372.874C65.5,358.557,61.646,347,56.874,347a25.874,25.874,0,1,0,0,51.747C61.646,398.747,65.5,387.19,65.5,372.874Z" transform="translate(-31 -155.823)"/><path class="am" d="M268.556,275.724H147.812a4.312,4.312,0,1,1,0-8.624H268.556a4.312,4.312,0,1,1,0,8.624Z" transform="translate(-78.816 -121.863)"/></g></g></g></svg>